<svg width="64" height="64" viewBox="0 0 64 64" fill="none" xmlns="http://www.w3.org/2000/svg">
<path fill-rule="evenodd" clip-rule="evenodd" d="M32 64C49.6731 64 64 49.6731 64 32C64 14.3269 49.6731 0 32 0C14.3269 0 0 14.3269 0 32C0 49.6731 14.3269 64 32 64Z" fill="#5741D9"/>
<path fill-rule="evenodd" clip-rule="evenodd" d="M31.9967 19.2002C22.7176 19.2002 15.2 26.4962 15.2 35.493V42.4746C15.2 43.7602 16.2744 44.8002 17.5968 44.8002C18.92 44.8002 20 43.7602 20 42.4746V35.493C20 34.2066 21.0696 33.1642 22.3984 33.1642C23.7224 33.1642 24.7968 34.2066 24.7968 35.493V42.4746C24.7968 43.7602 25.872 44.8002 27.196 44.8002C28.5232 44.8002 29.5976 43.7602 29.5976 42.4746V35.493C29.5976 34.2066 30.6728 33.1642 31.996 33.1642C33.3256 33.1642 34.4007 34.2066 34.4007 35.493V42.4746C34.4007 43.7602 35.4751 44.8002 36.7976 44.8002C38.1208 44.8002 39.1959 43.7602 39.1959 42.4746V35.493C39.1959 34.2066 40.2703 33.1642 41.5999 33.1642C42.924 33.1642 43.9984 34.2066 43.9984 35.493V42.4746C44 43.7602 45.0743 44.8002 46.4015 44.8002C47.7255 44.8002 48.7999 43.7602 48.7999 42.4746V35.493C48.7999 26.4962 41.2768 19.2002 31.9967 19.2002Z" fill="white"/>
</svg>
