<svg width="468" height="80" viewBox="0 0 468 80" fill="none" xmlns="http://www.w3.org/2000/svg">
<circle cx="8" cy="40" r="8" fill="white" fill-opacity="0.08"/>
<path d="M54.48 2.92H72.4L101.44 43.88V2.92H115.44V61H97.76L68.48 19.64V61H54.48V2.92ZM120.306 61L147.826 2.92H161.746L188.226 61H172.066L166.786 48.68H141.186L135.986 61H120.306ZM146.146 36.92H161.506L153.746 19L146.146 36.92ZM248.994 20.76H234.514C233.874 15 229.127 12.12 220.274 12.12C216.114 12.12 212.914 12.7067 210.674 13.88C208.487 15.0533 207.394 16.68 207.394 18.76C207.394 20.7867 208.194 22.1467 209.794 22.84C211.447 23.5333 214.567 24.12 219.154 24.6L229.954 25.72C237.314 26.52 242.754 28.3067 246.274 31.08C249.794 33.8 251.554 37.6933 251.554 42.76C251.554 49.16 248.94 54.0667 243.714 57.48C238.487 60.84 230.807 62.52 220.674 62.52C200.674 62.52 190.674 55.32 190.674 40.92H205.554C205.5 44.44 206.887 47.08 209.714 48.84C212.594 50.6 216.834 51.48 222.434 51.48C226.7 51.48 229.98 50.8667 232.274 49.64C234.567 48.36 235.714 46.6 235.714 44.36C235.714 42.2267 234.86 40.76 233.154 39.96C231.447 39.1067 228.487 38.4667 224.274 38.04L214.034 37C206.567 36.2533 201.02 34.5733 197.394 31.96C193.82 29.2933 192.034 25.5333 192.034 20.68C192.034 15.08 194.54 10.4667 199.554 6.84C204.62 3.21333 211.447 1.39999 220.034 1.39999C229.26 1.39999 236.38 3.10666 241.394 6.52C246.46 9.88 248.994 14.6267 248.994 20.76ZM262.136 61V2.92H291.816C296.456 2.92 300.67 3.45333 304.456 4.52C308.296 5.58666 311.71 7.24 314.696 9.48C317.736 11.72 320.083 14.76 321.736 18.6C323.443 22.3867 324.296 26.84 324.296 31.96C324.296 37.4 323.39 42.0667 321.576 45.96C319.816 49.8 317.256 52.8133 313.896 55C310.536 57.1333 306.776 58.68 302.616 59.64C298.456 60.5467 293.71 61 288.376 61H262.136ZM276.696 14.84V49.08H288.056C294.723 49.08 299.763 47.6133 303.176 44.68C306.643 41.6933 308.376 37.3733 308.376 31.72C308.376 20.4667 301.603 14.84 288.056 14.84H276.696ZM326.087 61L353.608 2.92H367.528L394.008 61H377.848L372.568 48.68H346.968L341.768 61H326.087ZM351.928 36.92H367.288L359.528 19L351.928 36.92ZM461.603 58.12L452.803 66.28L446.403 59.24C441.496 61.4267 435.816 62.52 429.363 62.52C418.75 62.52 410.296 59.7467 404.003 54.2C397.71 48.6 394.563 41.1867 394.563 31.96C394.563 22.7333 397.71 15.3467 404.003 9.8C410.296 4.2 418.75 1.39999 429.363 1.39999C439.976 1.39999 448.43 4.2 454.723 9.8C461.016 15.3467 464.163 22.7333 464.163 31.96C464.163 40.6533 461.576 47.4533 456.403 52.36L461.603 58.12ZM432.483 43.72L441.363 35.48L446.323 40.92C447.55 38.68 448.163 35.6933 448.163 31.96C448.163 26.2533 446.483 21.72 443.123 18.36C439.763 15 435.176 13.32 429.363 13.32C423.55 13.32 418.963 14.9733 415.603 18.28C412.243 21.5867 410.563 26.1467 410.563 31.96C410.563 37.8267 412.27 42.4133 415.683 45.72C419.15 48.9733 423.923 50.6 430.003 50.6C432.99 50.6 435.416 50.0933 437.283 49.08L432.483 43.72Z" fill="white" fill-opacity="0.08"/>
</svg>
