<svg width="1016" height="80" viewBox="0 0 1016 80" fill="none" xmlns="http://www.w3.org/2000/svg">
<path d="M71.36 24.12H55.52C53.6 16.92 47.8133 13.32 38.16 13.32C32.3467 13.32 27.76 14.9733 24.4 18.28C21.04 21.5867 19.36 26.1467 19.36 31.96C19.36 37.7733 21.04 42.3333 24.4 45.64C27.76 48.9467 32.3467 50.6 38.16 50.6C43.2267 50.6 47.28 49.5333 50.32 47.4C53.4133 45.2667 55.2 42.28 55.68 38.44H71.6C70.8533 45.6933 67.4667 51.5333 61.44 55.96C55.4133 60.3333 47.6533 62.52 38.16 62.52C27.5467 62.52 19.0933 59.7467 12.8 54.2C6.50667 48.6 3.36 41.1867 3.36 31.96C3.36 22.7333 6.50667 15.3467 12.8 9.8C19.0933 4.2 27.5467 1.39999 38.16 1.39999C47.5467 1.39999 55.2267 3.53333 61.2 7.8C67.2267 12.0133 70.6133 17.4533 71.36 24.12ZM95.9619 2.92V49.08H125.802V61H81.4019V2.92H95.9619Z" fill="white" fill-opacity="0.08"/>
<circle cx="169" cy="40" r="8" fill="white" fill-opacity="0.08"/>
<path d="M215.48 61V2.92H253C266.067 2.92 272.6 7.74667 272.6 17.4C272.6 23.2133 269.96 27.4533 264.68 30.12C271.4 32.2533 274.76 37.0267 274.76 44.44C274.76 49.5067 273.107 53.5333 269.8 56.52C266.493 59.5067 261.88 61 255.96 61H215.48ZM230.04 36.36V49.08H249.4C253.133 49.08 255.747 48.7067 257.24 47.96C258.787 47.2133 259.56 45.5867 259.56 43.08C259.56 40.6267 258.76 38.8933 257.16 37.88C255.56 36.8667 252.973 36.36 249.4 36.36H230.04ZM230.04 14.84V26.2H247.24C250.92 26.2 253.533 25.8 255.08 25C256.627 24.1467 257.4 22.5467 257.4 20.2C257.4 18.0667 256.627 16.6533 255.08 15.96C253.533 15.2133 250.92 14.84 247.24 14.84H230.04ZM284.621 61V2.92H320.301C327.981 2.92 333.661 4.17333 337.341 6.68C341.021 9.13333 342.861 13.08 342.861 18.52C342.861 21.9867 342.007 25.0267 340.301 27.64C338.647 30.2 336.301 32.0667 333.261 33.24C336.194 34.4667 338.087 35.9333 338.941 37.64C339.847 39.3467 340.381 42.0133 340.541 45.64C340.807 51.72 341.207 55.6133 341.741 57.32C342.221 58.8133 342.861 60.04 343.661 61H327.341C326.541 59.72 326.141 58.2267 326.141 56.52V52.52C326.141 47.4533 325.501 44.04 324.221 42.28C322.941 40.52 320.194 39.64 315.981 39.64H299.181V61H284.621ZM299.181 14.84V27.72H315.661C319.767 27.72 322.754 27.24 324.621 26.28C326.541 25.2667 327.501 23.4533 327.501 20.84C327.501 18.28 326.594 16.6533 324.781 15.96C322.967 15.2133 319.714 14.84 315.021 14.84H299.181ZM353.527 2.92H405.127V14.84H368.087V24.52H401.047V36.44H368.087V49.08H405.127V61H353.527V2.92ZM415.949 2.92H433.869L462.909 43.88V2.92H476.909V61H459.229L429.949 19.64V61H415.949V2.92ZM489.855 61V2.92H519.535C524.175 2.92 528.388 3.45333 532.175 4.52C536.015 5.58666 539.428 7.24 542.415 9.48C545.455 11.72 547.802 14.76 549.455 18.6C551.162 22.3867 552.015 26.84 552.015 31.96C552.015 37.4 551.108 42.0667 549.295 45.96C547.535 49.8 544.975 52.8133 541.615 55C538.255 57.1333 534.495 58.68 530.335 59.64C526.175 60.5467 521.428 61 516.095 61H489.855ZM504.415 14.84V49.08H515.775C522.442 49.08 527.482 47.6133 530.895 44.68C534.362 41.6933 536.095 37.3733 536.095 31.72C536.095 20.4667 529.322 14.84 515.775 14.84H504.415Z" fill="white" fill-opacity="0.08"/>
<circle cx="596" cy="40" r="8" fill="white" fill-opacity="0.08"/>
<path d="M698.4 20.76H683.92C683.28 15 678.533 12.12 669.68 12.12C665.52 12.12 662.32 12.7067 660.08 13.88C657.893 15.0533 656.8 16.68 656.8 18.76C656.8 20.7867 657.6 22.1467 659.2 22.84C660.853 23.5333 663.973 24.12 668.56 24.6L679.36 25.72C686.72 26.52 692.16 28.3067 695.68 31.08C699.2 33.8 700.96 37.6933 700.96 42.76C700.96 49.16 698.347 54.0667 693.12 57.48C687.893 60.84 680.213 62.52 670.08 62.52C650.08 62.52 640.08 55.32 640.08 40.92H654.96C654.907 44.44 656.293 47.08 659.12 48.84C662 50.6 666.24 51.48 671.84 51.48C676.107 51.48 679.387 50.8667 681.68 49.64C683.973 48.36 685.12 46.6 685.12 44.36C685.12 42.2267 684.267 40.76 682.56 39.96C680.853 39.1067 677.893 38.4667 673.68 38.04L663.44 37C655.973 36.2533 650.427 34.5733 646.8 31.96C643.227 29.2933 641.44 25.5333 641.44 20.68C641.44 15.08 643.947 10.4667 648.96 6.84C654.027 3.21333 660.853 1.39999 669.44 1.39999C678.667 1.39999 685.787 3.10666 690.8 6.52C695.867 9.88 698.4 14.6267 698.4 20.76ZM757.783 61L754.023 57C748.689 60.68 741.809 62.52 733.383 62.52C726.449 62.52 720.716 60.8133 716.183 57.4C711.703 53.9867 709.463 49.8267 709.463 44.92C709.463 41.1333 710.689 37.7733 713.143 34.84C715.649 31.9067 719.489 29.24 724.663 26.84C720.769 23.6933 718.823 19.9067 718.823 15.48C718.823 11.8 720.396 8.78666 723.543 6.44C726.689 4.04 730.903 2.84 736.183 2.84C741.836 2.84 746.236 4.01333 749.383 6.36C752.529 8.65333 754.103 11.8 754.103 15.8C754.103 18.7867 753.303 21.3733 751.703 23.56C750.103 25.7467 747.569 27.7467 744.103 29.56L754.423 39.64C755.489 38.2533 756.156 36.7067 756.423 35H770.583C769.036 40.92 766.689 45.5333 763.543 48.84L775.783 61H757.783ZM745.623 48.44L732.743 35.24C727.356 37.64 724.663 40.4133 724.663 43.56C724.663 45.8 725.649 47.6667 727.623 49.16C729.596 50.6 732.209 51.32 735.463 51.32C739.089 51.32 742.476 50.36 745.623 48.44ZM736.023 21.48C739.649 20.1467 741.463 18.3867 741.463 16.2C741.463 15.08 741.063 14.2 740.263 13.56C739.516 12.92 738.476 12.6 737.143 12.6C735.703 12.6 734.529 12.9467 733.623 13.64C732.769 14.28 732.343 15.08 732.343 16.04C732.343 17.5867 733.569 19.4 736.023 21.48ZM780.605 61V2.92H815.005C821.778 2.92 827.032 4.68 830.765 8.2C834.498 11.6667 836.365 16.4933 836.365 22.68C836.365 28.92 834.472 33.8267 830.685 37.4C826.952 40.9733 821.725 42.76 815.005 42.76H795.165V61H780.605ZM795.165 14.84V30.84H808.525C813.272 30.84 816.658 30.3067 818.685 29.24C820.765 28.12 821.805 26.0133 821.805 22.92C821.805 19.72 820.872 17.5867 819.005 16.52C817.192 15.4 814.018 14.84 809.485 14.84H795.165ZM842.87 44.04H857.91C858.71 48.5733 861.99 50.84 867.75 50.84C871.217 50.84 873.937 50.0133 875.91 48.36C877.883 46.6533 878.87 44.4133 878.87 41.64C878.87 38.76 877.883 36.4933 875.91 34.84C873.99 33.1867 871.35 32.36 867.99 32.36C863.777 32.36 860.497 33.9867 858.15 37.24H844.31L850.55 4.36H889.91V16.2H860.79L859.03 24.76C863.083 22.3067 867.35 21.08 871.83 21.08C878.337 21.08 883.51 22.8667 887.35 26.44C891.243 29.96 893.19 34.6267 893.19 40.44C893.19 47.32 890.95 52.7333 886.47 56.68C881.99 60.5733 875.803 62.52 867.91 62.52C860.497 62.52 854.603 60.8933 850.23 57.64C845.91 54.3333 843.457 49.8 842.87 44.04ZM908.422 54.76C903.835 49.5333 901.542 42.1733 901.542 32.68C901.542 23.1867 903.835 15.8533 908.422 10.68C913.009 5.50667 919.409 2.92 927.622 2.92C935.995 2.92 942.475 5.50667 947.062 10.68C951.649 15.8 953.942 23.1333 953.942 32.68C953.942 42.2267 951.649 49.5867 947.062 54.76C942.475 59.9333 935.995 62.52 927.622 62.52C919.409 62.52 913.009 59.9333 908.422 54.76ZM918.822 19.16C916.742 22.2533 915.702 26.76 915.702 32.68C915.702 38.6 916.742 43.1333 918.822 46.28C920.955 49.3733 923.942 50.92 927.782 50.92C931.622 50.92 934.582 49.3733 936.662 46.28C938.742 43.1333 939.782 38.6 939.782 32.68C939.782 26.76 938.742 22.2533 936.662 19.16C934.582 16.0133 931.622 14.44 927.782 14.44C923.942 14.44 920.955 16.0133 918.822 19.16ZM967.094 54.76C962.507 49.5333 960.214 42.1733 960.214 32.68C960.214 23.1867 962.507 15.8533 967.094 10.68C971.68 5.50667 978.08 2.92 986.294 2.92C994.667 2.92 1001.15 5.50667 1005.73 10.68C1010.32 15.8 1012.61 23.1333 1012.61 32.68C1012.61 42.2267 1010.32 49.5867 1005.73 54.76C1001.15 59.9333 994.667 62.52 986.294 62.52C978.08 62.52 971.68 59.9333 967.094 54.76ZM977.494 19.16C975.414 22.2533 974.374 26.76 974.374 32.68C974.374 38.6 975.414 43.1333 977.494 46.28C979.627 49.3733 982.614 50.92 986.454 50.92C990.294 50.92 993.254 49.3733 995.334 46.28C997.414 43.1333 998.454 38.6 998.454 32.68C998.454 26.76 997.414 22.2533 995.334 19.16C993.254 16.0133 990.294 14.44 986.454 14.44C982.614 14.44 979.627 16.0133 977.494 19.16Z" fill="white" fill-opacity="0.08"/>
</svg>
