<svg width="1361" height="80" viewBox="0 0 1361 80" fill="none" xmlns="http://www.w3.org/2000/svg">
<path d="M62.4 20.76H47.92C47.28 15 42.5333 12.12 33.68 12.12C29.52 12.12 26.32 12.7067 24.08 13.88C21.8933 15.0533 20.8 16.68 20.8 18.76C20.8 20.7867 21.6 22.1467 23.2 22.84C24.8533 23.5333 27.9733 24.12 32.56 24.6L43.36 25.72C50.72 26.52 56.16 28.3067 59.68 31.08C63.2 33.8 64.96 37.6933 64.96 42.76C64.96 49.16 62.3467 54.0667 57.12 57.48C51.8933 60.84 44.2133 62.52 34.08 62.52C14.08 62.52 4.08 55.32 4.08 40.92H18.96C18.9067 44.44 20.2933 47.08 23.12 48.84C26 50.6 30.24 51.48 35.84 51.48C40.1067 51.48 43.3867 50.8667 45.68 49.64C47.9733 48.36 49.12 46.6 49.12 44.36C49.12 42.2267 48.2667 40.76 46.56 39.96C44.8533 39.1067 41.8933 38.4667 37.68 38.04L27.44 37C19.9733 36.2533 14.4267 34.5733 10.8 31.96C7.22667 29.2933 5.44 25.5333 5.44 20.68C5.44 15.08 7.94667 10.4667 12.96 6.84C18.0267 3.21333 24.8533 1.39999 33.44 1.39999C42.6667 1.39999 49.7867 3.10666 54.8 6.52C59.8667 9.88 62.4 14.6267 62.4 20.76ZM90.3425 2.92V61H75.7825V2.92H90.3425Z" fill="white" fill-opacity="0.08"/>
<circle cx="138" cy="40" r="8" fill="white" fill-opacity="0.08"/>
<path d="M240.4 20.76H225.92C225.28 15 220.533 12.12 211.68 12.12C207.52 12.12 204.32 12.7067 202.08 13.88C199.893 15.0533 198.8 16.68 198.8 18.76C198.8 20.7867 199.6 22.1467 201.2 22.84C202.853 23.5333 205.973 24.12 210.56 24.6L221.36 25.72C228.72 26.52 234.16 28.3067 237.68 31.08C241.2 33.8 242.96 37.6933 242.96 42.76C242.96 49.16 240.347 54.0667 235.12 57.48C229.893 60.84 222.213 62.52 212.08 62.52C192.08 62.52 182.08 55.32 182.08 40.92H196.96C196.907 44.44 198.293 47.08 201.12 48.84C204 50.6 208.24 51.48 213.84 51.48C218.107 51.48 221.387 50.8667 223.68 49.64C225.973 48.36 227.12 46.6 227.12 44.36C227.12 42.2267 226.267 40.76 224.56 39.96C222.853 39.1067 219.893 38.4667 215.68 38.04L205.44 37C197.973 36.2533 192.427 34.5733 188.8 31.96C185.227 29.2933 183.44 25.5333 183.44 20.68C183.44 15.08 185.947 10.4667 190.96 6.84C196.027 3.21333 202.853 1.39999 211.44 1.39999C220.667 1.39999 227.787 3.10666 232.8 6.52C237.867 9.88 240.4 14.6267 240.4 20.76ZM253.543 61V2.92H291.063C304.129 2.92 310.663 7.74667 310.663 17.4C310.663 23.2133 308.023 27.4533 302.743 30.12C309.463 32.2533 312.823 37.0267 312.823 44.44C312.823 49.5067 311.169 53.5333 307.863 56.52C304.556 59.5067 299.943 61 294.023 61H253.543ZM268.103 36.36V49.08H287.462C291.196 49.08 293.809 48.7067 295.303 47.96C296.849 47.2133 297.623 45.5867 297.623 43.08C297.623 40.6267 296.823 38.8933 295.223 37.88C293.623 36.8667 291.036 36.36 287.462 36.36H268.103ZM268.103 14.84V26.2H285.303C288.983 26.2 291.596 25.8 293.143 25C294.689 24.1467 295.463 22.5467 295.463 20.2C295.463 18.0667 294.689 16.6533 293.143 15.96C291.596 15.2133 288.983 14.84 285.303 14.84H268.103ZM322.683 2.92H374.283V14.84H337.243V24.52H370.203V36.44H337.243V49.08H374.283V61H322.683V2.92ZM385.105 61V2.92H420.785C428.465 2.92 434.145 4.17333 437.825 6.68C441.505 9.13333 443.345 13.08 443.345 18.52C443.345 21.9867 442.492 25.0267 440.785 27.64C439.132 30.2 436.785 32.0667 433.745 33.24C436.678 34.4667 438.572 35.9333 439.425 37.64C440.332 39.3467 440.865 42.0133 441.025 45.64C441.292 51.72 441.692 55.6133 442.225 57.32C442.705 58.8133 443.345 60.04 444.145 61H427.825C427.025 59.72 426.625 58.2267 426.625 56.52V52.52C426.625 47.4533 425.985 44.04 424.705 42.28C423.425 40.52 420.678 39.64 416.465 39.64H399.665V61H385.105ZM399.665 14.84V27.72H416.145C420.252 27.72 423.238 27.24 425.105 26.28C427.025 25.2667 427.985 23.4533 427.985 20.84C427.985 18.28 427.078 16.6533 425.265 15.96C423.452 15.2133 420.198 14.84 415.505 14.84H399.665Z" fill="white" fill-opacity="0.08"/>
<circle cx="488" cy="40" r="8" fill="white" fill-opacity="0.08"/>
<path d="M598.8 23H582.96C580.347 16.5467 574.747 13.32 566.16 13.32C560.347 13.32 555.76 14.9733 552.4 18.28C549.04 21.5867 547.36 26.1467 547.36 31.96C547.36 37.7733 549.04 42.3333 552.4 45.64C555.76 48.9467 560.347 50.6 566.16 50.6C570.16 50.6 573.653 49.7467 576.64 48.04C579.68 46.3333 581.867 44.04 583.2 41.16H570V29.24H598.64V61H587.6L586.8 54.44C581.36 59.8267 574.213 62.52 565.36 62.52C555.333 62.52 547.147 59.72 540.8 54.12C534.507 48.52 531.36 41.1333 531.36 31.96C531.36 22.7333 534.507 15.3467 540.8 9.8C547.093 4.2 555.547 1.39999 566.16 1.39999C575.227 1.39999 582.72 3.42666 588.64 7.48C594.56 11.48 597.947 16.6533 598.8 23ZM603.197 61L630.717 2.92H644.637L671.117 61H654.957L649.677 48.68H624.077L618.877 61H603.197ZM629.037 36.92H644.397L636.637 19L629.037 36.92ZM674.444 2.92H731.484V15L693.244 49.08H731.804V61H672.844V48.44L710.524 14.84H674.444V2.92ZM741.668 61V2.92H776.068C782.841 2.92 788.094 4.68 791.828 8.2C795.561 11.6667 797.428 16.4933 797.428 22.68C797.428 28.92 795.534 33.8267 791.748 37.4C788.014 40.9733 782.788 42.76 776.068 42.76H756.228V61H741.668ZM756.228 14.84V30.84H769.588C774.334 30.84 777.721 30.3067 779.748 29.24C781.828 28.12 782.868 26.0133 782.868 22.92C782.868 19.72 781.934 17.5867 780.068 16.52C778.254 15.4 775.081 14.84 770.548 14.84H756.228ZM807.293 61V2.92H842.973C850.653 2.92 856.333 4.17333 860.013 6.68C863.693 9.13333 865.533 13.08 865.533 18.52C865.533 21.9867 864.679 25.0267 862.973 27.64C861.319 30.2 858.973 32.0667 855.933 33.24C858.866 34.4667 860.759 35.9333 861.613 37.64C862.519 39.3467 863.053 42.0133 863.213 45.64C863.479 51.72 863.879 55.6133 864.413 57.32C864.893 58.8133 865.533 60.04 866.333 61H850.013C849.213 59.72 848.813 58.2267 848.813 56.52V52.52C848.813 47.4533 848.173 44.04 846.893 42.28C845.613 40.52 842.866 39.64 838.653 39.64H821.853V61H807.293ZM821.853 14.84V27.72H838.333C842.439 27.72 845.426 27.24 847.293 26.28C849.213 25.2667 850.173 23.4533 850.173 20.84C850.173 18.28 849.266 16.6533 847.453 15.96C845.639 15.2133 842.386 14.84 837.693 14.84H821.853ZM882.519 9.8C888.812 4.2 897.265 1.39999 907.879 1.39999C918.492 1.39999 926.919 4.2 933.159 9.8C939.452 15.3467 942.599 22.7333 942.599 31.96C942.599 41.1867 939.452 48.6 933.159 54.2C926.919 59.7467 918.492 62.52 907.879 62.52C897.265 62.52 888.812 59.7467 882.519 54.2C876.225 48.6 873.079 41.1867 873.079 31.96C873.079 22.7333 876.225 15.3467 882.519 9.8ZM921.559 18.28C918.252 14.9733 913.692 13.32 907.879 13.32C902.065 13.32 897.479 14.9733 894.119 18.28C890.759 21.5867 889.079 26.1467 889.079 31.96C889.079 37.7733 890.759 42.3333 894.119 45.64C897.479 48.9467 902.065 50.6 907.879 50.6C913.692 50.6 918.252 48.9467 921.559 45.64C924.919 42.3333 926.599 37.7733 926.599 31.96C926.599 26.1467 924.919 21.5867 921.559 18.28ZM952.449 2.92H971.249L989.969 44.52L1009.17 2.92H1027.81V61H1013.81V22.2L995.809 61H983.729L966.449 21.56V61H952.449V2.92Z" fill="white" fill-opacity="0.08"/>
<circle cx="1075" cy="40" r="8" fill="white" fill-opacity="0.08"/>
<path d="M1121.48 61V2.92H1159C1172.07 2.92 1178.6 7.74667 1178.6 17.4C1178.6 23.2133 1175.96 27.4533 1170.68 30.12C1177.4 32.2533 1180.76 37.0267 1180.76 44.44C1180.76 49.5067 1179.11 53.5333 1175.8 56.52C1172.49 59.5067 1167.88 61 1161.96 61H1121.48ZM1136.04 36.36V49.08H1155.4C1159.13 49.08 1161.75 48.7067 1163.24 47.96C1164.79 47.2133 1165.56 45.5867 1165.56 43.08C1165.56 40.6267 1164.76 38.8933 1163.16 37.88C1161.56 36.8667 1158.97 36.36 1155.4 36.36H1136.04ZM1136.04 14.84V26.2H1153.24C1156.92 26.2 1159.53 25.8 1161.08 25C1162.63 24.1467 1163.4 22.5467 1163.4 20.2C1163.4 18.0667 1162.63 16.6533 1161.08 15.96C1159.53 15.2133 1156.92 14.84 1153.24 14.84H1136.04ZM1183.66 2.92H1238.06V14.84H1218.14V61H1203.58V14.84H1183.66V2.92ZM1308.94 24.12H1293.1C1291.18 16.92 1285.39 13.32 1275.74 13.32C1269.92 13.32 1265.34 14.9733 1261.98 18.28C1258.62 21.5867 1256.94 26.1467 1256.94 31.96C1256.94 37.7733 1258.62 42.3333 1261.98 45.64C1265.34 48.9467 1269.92 50.6 1275.74 50.6C1280.8 50.6 1284.86 49.5333 1287.9 47.4C1290.99 45.2667 1292.78 42.28 1293.26 38.44H1309.18C1308.43 45.6933 1305.04 51.5333 1299.02 55.96C1292.99 60.3333 1285.23 62.52 1275.74 62.52C1265.12 62.52 1256.67 59.7467 1250.38 54.2C1244.08 48.6 1240.94 41.1867 1240.94 31.96C1240.94 22.7333 1244.08 15.3467 1250.38 9.8C1256.67 4.2 1265.12 1.39999 1275.74 1.39999C1285.12 1.39999 1292.8 3.53333 1298.78 7.8C1304.8 12.0133 1308.19 17.4533 1308.94 24.12Z" fill="white" fill-opacity="0.08"/>
<circle cx="1353" cy="40" r="8" fill="white" fill-opacity="0.08"/>
</svg>
