<svg width="1355" height="80" viewBox="0 0 1355 80" fill="none" xmlns="http://www.w3.org/2000/svg">
<path d="M6.48 61V2.92H42.16C49.84 2.92 55.52 4.17333 59.2 6.68C62.88 9.13333 64.72 13.08 64.72 18.52C64.72 21.9867 63.8667 25.0267 62.16 27.64C60.5067 30.2 58.16 32.0667 55.12 33.24C58.0533 34.4667 59.9467 35.9333 60.8 37.64C61.7067 39.3467 62.24 42.0133 62.4 45.64C62.6667 51.72 63.0667 55.6133 63.6 57.32C64.08 58.8133 64.72 60.04 65.52 61H49.2C48.4 59.72 48 58.2267 48 56.52V52.52C48 47.4533 47.36 44.04 46.08 42.28C44.8 40.52 42.0533 39.64 37.84 39.64H21.04V61H6.48ZM21.04 14.84V27.72H37.52C41.6267 27.72 44.6133 27.24 46.48 26.28C48.4 25.2667 49.36 23.4533 49.36 20.84C49.36 18.28 48.4533 16.6533 46.64 15.96C44.8267 15.2133 41.5733 14.84 36.88 14.84H21.04ZM68.4262 2.92H122.826V14.84H102.906V61H88.3463V14.84H68.4262V2.92ZM184.744 20.76H170.264C169.624 15 164.877 12.12 156.024 12.12C151.864 12.12 148.664 12.7067 146.424 13.88C144.237 15.0533 143.144 16.68 143.144 18.76C143.144 20.7867 143.944 22.1467 145.544 22.84C147.197 23.5333 150.317 24.12 154.904 24.6L165.704 25.72C173.064 26.52 178.504 28.3067 182.024 31.08C185.544 33.8 187.304 37.6933 187.304 42.76C187.304 49.16 184.69 54.0667 179.464 57.48C174.237 60.84 166.557 62.52 156.424 62.52C136.424 62.52 126.424 55.32 126.424 40.92H141.304C141.25 44.44 142.637 47.08 145.464 48.84C148.344 50.6 152.584 51.48 158.184 51.48C162.45 51.48 165.73 50.8667 168.024 49.64C170.317 48.36 171.464 46.6 171.464 44.36C171.464 42.2267 170.61 40.76 168.904 39.96C167.197 39.1067 164.237 38.4667 160.024 38.04L149.784 37C142.317 36.2533 136.77 34.5733 133.144 31.96C129.57 29.2933 127.784 25.5333 127.784 20.68C127.784 15.08 130.29 10.4667 135.304 6.84C140.37 3.21333 147.197 1.39999 155.784 1.39999C165.01 1.39999 172.13 3.10666 177.144 6.52C182.21 9.88 184.744 14.6267 184.744 20.76Z" fill="white" fill-opacity="0.08"/>
<circle cx="232" cy="40" r="8" fill="white" fill-opacity="0.08"/>
<path d="M334.4 20.76H319.92C319.28 15 314.533 12.12 305.68 12.12C301.52 12.12 298.32 12.7067 296.08 13.88C293.893 15.0533 292.8 16.68 292.8 18.76C292.8 20.7867 293.6 22.1467 295.2 22.84C296.853 23.5333 299.973 24.12 304.56 24.6L315.36 25.72C322.72 26.52 328.16 28.3067 331.68 31.08C335.2 33.8 336.96 37.6933 336.96 42.76C336.96 49.16 334.347 54.0667 329.12 57.48C323.893 60.84 316.213 62.52 306.08 62.52C286.08 62.52 276.08 55.32 276.08 40.92H290.96C290.907 44.44 292.293 47.08 295.12 48.84C298 50.6 302.24 51.48 307.84 51.48C312.107 51.48 315.387 50.8667 317.68 49.64C319.973 48.36 321.12 46.6 321.12 44.36C321.12 42.2267 320.267 40.76 318.56 39.96C316.853 39.1067 313.893 38.4667 309.68 38.04L299.44 37C291.973 36.2533 286.427 34.5733 282.8 31.96C279.227 29.2933 277.44 25.5333 277.44 20.68C277.44 15.08 279.947 10.4667 284.96 6.84C290.027 3.21333 296.853 1.39999 305.44 1.39999C314.667 1.39999 321.787 3.10666 326.8 6.52C331.867 9.88 334.4 14.6267 334.4 20.76ZM362.343 2.92V61H347.783V2.92H362.343Z" fill="white" fill-opacity="0.08"/>
<circle cx="410" cy="40" r="8" fill="white" fill-opacity="0.08"/>
<path d="M512.4 20.76H497.92C497.28 15 492.533 12.12 483.68 12.12C479.52 12.12 476.32 12.7067 474.08 13.88C471.893 15.0533 470.8 16.68 470.8 18.76C470.8 20.7867 471.6 22.1467 473.2 22.84C474.853 23.5333 477.973 24.12 482.56 24.6L493.36 25.72C500.72 26.52 506.16 28.3067 509.68 31.08C513.2 33.8 514.96 37.6933 514.96 42.76C514.96 49.16 512.347 54.0667 507.12 57.48C501.893 60.84 494.213 62.52 484.08 62.52C464.08 62.52 454.08 55.32 454.08 40.92H468.96C468.907 44.44 470.293 47.08 473.12 48.84C476 50.6 480.24 51.48 485.84 51.48C490.107 51.48 493.387 50.8667 495.68 49.64C497.973 48.36 499.12 46.6 499.12 44.36C499.12 42.2267 498.267 40.76 496.56 39.96C494.853 39.1067 491.893 38.4667 487.68 38.04L477.44 37C469.973 36.2533 464.427 34.5733 460.8 31.96C457.227 29.2933 455.44 25.5333 455.44 20.68C455.44 15.08 457.947 10.4667 462.96 6.84C468.027 3.21333 474.853 1.39999 483.44 1.39999C492.667 1.39999 499.787 3.10666 504.8 6.52C509.867 9.88 512.4 14.6267 512.4 20.76ZM525.543 61V2.92H563.063C576.129 2.92 582.663 7.74667 582.663 17.4C582.663 23.2133 580.023 27.4533 574.743 30.12C581.463 32.2533 584.823 37.0267 584.823 44.44C584.823 49.5067 583.169 53.5333 579.863 56.52C576.556 59.5067 571.943 61 566.023 61H525.543ZM540.103 36.36V49.08H559.462C563.196 49.08 565.809 48.7067 567.303 47.96C568.849 47.2133 569.623 45.5867 569.623 43.08C569.623 40.6267 568.823 38.8933 567.223 37.88C565.623 36.8667 563.036 36.36 559.462 36.36H540.103ZM540.103 14.84V26.2H557.303C560.983 26.2 563.596 25.8 565.143 25C566.689 24.1467 567.463 22.5467 567.463 20.2C567.463 18.0667 566.689 16.6533 565.143 15.96C563.596 15.2133 560.983 14.84 557.303 14.84H540.103ZM594.683 2.92H646.283V14.84H609.243V24.52H642.203V36.44H609.243V49.08H646.283V61H594.683V2.92ZM657.105 61V2.92H692.785C700.465 2.92 706.145 4.17333 709.825 6.68C713.505 9.13333 715.345 13.08 715.345 18.52C715.345 21.9867 714.492 25.0267 712.785 27.64C711.132 30.2 708.785 32.0667 705.745 33.24C708.678 34.4667 710.572 35.9333 711.425 37.64C712.332 39.3467 712.865 42.0133 713.025 45.64C713.292 51.72 713.692 55.6133 714.225 57.32C714.705 58.8133 715.345 60.04 716.145 61H699.825C699.025 59.72 698.625 58.2267 698.625 56.52V52.52C698.625 47.4533 697.985 44.04 696.705 42.28C695.425 40.52 692.678 39.64 688.465 39.64H671.665V61H657.105ZM671.665 14.84V27.72H688.145C692.252 27.72 695.238 27.24 697.105 26.28C699.025 25.2667 699.985 23.4533 699.985 20.84C699.985 18.28 699.078 16.6533 697.265 15.96C695.452 15.2133 692.198 14.84 687.505 14.84H671.665Z" fill="white" fill-opacity="0.08"/>
<circle cx="760" cy="40" r="8" fill="white" fill-opacity="0.08"/>
<path d="M870.8 23H854.96C852.347 16.5467 846.747 13.32 838.16 13.32C832.347 13.32 827.76 14.9733 824.4 18.28C821.04 21.5867 819.36 26.1467 819.36 31.96C819.36 37.7733 821.04 42.3333 824.4 45.64C827.76 48.9467 832.347 50.6 838.16 50.6C842.16 50.6 845.653 49.7467 848.64 48.04C851.68 46.3333 853.867 44.04 855.2 41.16H842V29.24H870.64V61H859.6L858.8 54.44C853.36 59.8267 846.213 62.52 837.36 62.52C827.333 62.52 819.147 59.72 812.8 54.12C806.507 48.52 803.36 41.1333 803.36 31.96C803.36 22.7333 806.507 15.3467 812.8 9.8C819.093 4.2 827.547 1.39999 838.16 1.39999C847.227 1.39999 854.72 3.42666 860.64 7.48C866.56 11.48 869.947 16.6533 870.8 23ZM875.197 61L902.717 2.92H916.637L943.117 61H926.957L921.677 48.68H896.077L890.877 61H875.197ZM901.037 36.92H916.397L908.637 19L901.037 36.92ZM946.444 2.92H1003.48V15L965.244 49.08H1003.8V61H944.844V48.44L982.524 14.84H946.444V2.92ZM1013.67 61V2.92H1048.07C1054.84 2.92 1060.09 4.68 1063.83 8.2C1067.56 11.6667 1069.43 16.4933 1069.43 22.68C1069.43 28.92 1067.53 33.8267 1063.75 37.4C1060.01 40.9733 1054.79 42.76 1048.07 42.76H1028.23V61H1013.67ZM1028.23 14.84V30.84H1041.59C1046.33 30.84 1049.72 30.3067 1051.75 29.24C1053.83 28.12 1054.87 26.0133 1054.87 22.92C1054.87 19.72 1053.93 17.5867 1052.07 16.52C1050.25 15.4 1047.08 14.84 1042.55 14.84H1028.23ZM1079.29 61V2.92H1114.97C1122.65 2.92 1128.33 4.17333 1132.01 6.68C1135.69 9.13333 1137.53 13.08 1137.53 18.52C1137.53 21.9867 1136.68 25.0267 1134.97 27.64C1133.32 30.2 1130.97 32.0667 1127.93 33.24C1130.87 34.4667 1132.76 35.9333 1133.61 37.64C1134.52 39.3467 1135.05 42.0133 1135.21 45.64C1135.48 51.72 1135.88 55.6133 1136.41 57.32C1136.89 58.8133 1137.53 60.04 1138.33 61H1122.01C1121.21 59.72 1120.81 58.2267 1120.81 56.52V52.52C1120.81 47.4533 1120.17 44.04 1118.89 42.28C1117.61 40.52 1114.87 39.64 1110.65 39.64H1093.85V61H1079.29ZM1093.85 14.84V27.72H1110.33C1114.44 27.72 1117.43 27.24 1119.29 26.28C1121.21 25.2667 1122.17 23.4533 1122.17 20.84C1122.17 18.28 1121.27 16.6533 1119.45 15.96C1117.64 15.2133 1114.39 14.84 1109.69 14.84H1093.85ZM1154.52 9.8C1160.81 4.2 1169.27 1.39999 1179.88 1.39999C1190.49 1.39999 1198.92 4.2 1205.16 9.8C1211.45 15.3467 1214.6 22.7333 1214.6 31.96C1214.6 41.1867 1211.45 48.6 1205.16 54.2C1198.92 59.7467 1190.49 62.52 1179.88 62.52C1169.27 62.52 1160.81 59.7467 1154.52 54.2C1148.23 48.6 1145.08 41.1867 1145.08 31.96C1145.08 22.7333 1148.23 15.3467 1154.52 9.8ZM1193.56 18.28C1190.25 14.9733 1185.69 13.32 1179.88 13.32C1174.07 13.32 1169.48 14.9733 1166.12 18.28C1162.76 21.5867 1161.08 26.1467 1161.08 31.96C1161.08 37.7733 1162.76 42.3333 1166.12 45.64C1169.48 48.9467 1174.07 50.6 1179.88 50.6C1185.69 50.6 1190.25 48.9467 1193.56 45.64C1196.92 42.3333 1198.6 37.7733 1198.6 31.96C1198.6 26.1467 1196.92 21.5867 1193.56 18.28ZM1224.45 2.92H1243.25L1261.97 44.52L1281.17 2.92H1299.81V61H1285.81V22.2L1267.81 61H1255.73L1238.45 21.56V61H1224.45V2.92Z" fill="white" fill-opacity="0.08"/>
<circle cx="1347" cy="40" r="8" fill="white" fill-opacity="0.08"/>
</svg>
