<svg width="198" height="80" viewBox="0 0 198 80" fill="none" xmlns="http://www.w3.org/2000/svg">
<path d="M6.48 61V2.92H44C57.0667 2.92 63.6 7.74667 63.6 17.4C63.6 23.2133 60.96 27.4533 55.68 30.12C62.4 32.2533 65.76 37.0267 65.76 44.44C65.76 49.5067 64.1067 53.5333 60.8 56.52C57.4933 59.5067 52.88 61 46.96 61H6.48ZM21.04 36.36V49.08H40.4C44.1333 49.08 46.7467 48.7067 48.24 47.96C49.7867 47.2133 50.56 45.5867 50.56 43.08C50.56 40.6267 49.76 38.8933 48.16 37.88C46.56 36.8667 43.9733 36.36 40.4 36.36H21.04ZM21.04 14.84V26.2H38.24C41.92 26.2 44.5333 25.8 46.08 25C47.6267 24.1467 48.4 22.5467 48.4 20.2C48.4 18.0667 47.6267 16.6533 46.08 15.96C44.5333 15.2133 41.92 14.84 38.24 14.84H21.04ZM68.6606 2.92H123.061V14.84H103.141V61H88.5806V14.84H68.6606V2.92ZM193.938 24.12H178.098C176.178 16.92 170.391 13.32 160.738 13.32C154.925 13.32 150.338 14.9733 146.978 18.28C143.618 21.5867 141.938 26.1467 141.938 31.96C141.938 37.7733 143.618 42.3333 146.978 45.64C150.338 48.9467 154.925 50.6 160.738 50.6C165.805 50.6 169.858 49.5333 172.898 47.4C175.991 45.2667 177.778 42.28 178.258 38.44H194.178C193.431 45.6933 190.045 51.5333 184.018 55.96C177.991 60.3333 170.231 62.52 160.738 62.52C150.125 62.52 141.671 59.7467 135.378 54.2C129.085 48.6 125.938 41.1867 125.938 31.96C125.938 22.7333 129.085 15.3467 135.378 9.8C141.671 4.2 150.125 1.39999 160.738 1.39999C170.125 1.39999 177.805 3.53333 183.778 7.8C189.805 12.0133 193.191 17.4533 193.938 24.12Z" fill="white" fill-opacity="0.08"/>
</svg>
