<svg width="1440" height="180" viewBox="0 0 1440 180" fill="none" xmlns="http://www.w3.org/2000/svg">
<path d="M33.36 24.12H17.52C15.6 16.92 9.81334 13.32 0.160002 13.32C-5.65333 13.32 -10.24 14.9733 -13.6 18.28C-16.96 21.5867 -18.64 26.1467 -18.64 31.96C-18.64 37.7733 -16.96 42.3333 -13.6 45.64C-10.24 48.9467 -5.65333 50.6 0.160002 50.6C5.22667 50.6 9.28 49.5333 12.32 47.4C15.4133 45.2667 17.2 42.28 17.68 38.44H33.6C32.8533 45.6933 29.4667 51.5333 23.44 55.96C17.4133 60.3333 9.65334 62.52 0.160002 62.52C-10.4533 62.52 -18.9067 59.7467 -25.2 54.2C-31.4933 48.6 -34.64 41.1867 -34.64 31.96C-34.64 22.7333 -31.4933 15.3467 -25.2 9.8C-18.9067 4.2 -10.4533 1.39999 0.160002 1.39999C9.54667 1.39999 17.2267 3.53333 23.2 7.8C29.2267 12.0133 32.6133 17.4533 33.36 24.12ZM57.9619 2.92V49.08H87.8019V61H43.4019V2.92H57.9619Z" fill="white" fill-opacity="0.08"/>
<circle cx="131" cy="40" r="8" fill="white" fill-opacity="0.08"/>
<path d="M177.48 61V2.92H215C228.067 2.92 234.6 7.74667 234.6 17.4C234.6 23.2133 231.96 27.4533 226.68 30.12C233.4 32.2533 236.76 37.0267 236.76 44.44C236.76 49.5067 235.107 53.5333 231.8 56.52C228.493 59.5067 223.88 61 217.96 61H177.48ZM192.04 36.36V49.08H211.4C215.133 49.08 217.747 48.7067 219.24 47.96C220.787 47.2133 221.56 45.5867 221.56 43.08C221.56 40.6267 220.76 38.8933 219.16 37.88C217.56 36.8667 214.973 36.36 211.4 36.36H192.04ZM192.04 14.84V26.2H209.24C212.92 26.2 215.533 25.8 217.08 25C218.627 24.1467 219.4 22.5467 219.4 20.2C219.4 18.0667 218.627 16.6533 217.08 15.96C215.533 15.2133 212.92 14.84 209.24 14.84H192.04ZM246.621 61V2.92H282.301C289.981 2.92 295.661 4.17333 299.341 6.68C303.021 9.13333 304.861 13.08 304.861 18.52C304.861 21.9867 304.007 25.0267 302.301 27.64C300.647 30.2 298.301 32.0667 295.261 33.24C298.194 34.4667 300.087 35.9333 300.941 37.64C301.847 39.3467 302.381 42.0133 302.541 45.64C302.807 51.72 303.207 55.6133 303.741 57.32C304.221 58.8133 304.861 60.04 305.661 61H289.341C288.541 59.72 288.141 58.2267 288.141 56.52V52.52C288.141 47.4533 287.501 44.04 286.221 42.28C284.941 40.52 282.194 39.64 277.981 39.64H261.181V61H246.621ZM261.181 14.84V27.72H277.661C281.767 27.72 284.754 27.24 286.621 26.28C288.541 25.2667 289.501 23.4533 289.501 20.84C289.501 18.28 288.594 16.6533 286.781 15.96C284.967 15.2133 281.714 14.84 277.021 14.84H261.181ZM315.527 2.92H367.127V14.84H330.087V24.52H363.047V36.44H330.087V49.08H367.127V61H315.527V2.92ZM377.949 2.92H395.869L424.909 43.88V2.92H438.909V61H421.229L391.949 19.64V61H377.949V2.92ZM451.855 61V2.92H481.535C486.175 2.92 490.388 3.45333 494.175 4.52C498.015 5.58666 501.428 7.24 504.415 9.48C507.455 11.72 509.802 14.76 511.455 18.6C513.162 22.3867 514.015 26.84 514.015 31.96C514.015 37.4 513.108 42.0667 511.295 45.96C509.535 49.8 506.975 52.8133 503.615 55C500.255 57.1333 496.495 58.68 492.335 59.64C488.175 60.5467 483.428 61 478.095 61H451.855ZM466.415 14.84V49.08H477.775C484.442 49.08 489.482 47.6133 492.895 44.68C496.362 41.6933 498.095 37.3733 498.095 31.72C498.095 20.4667 491.322 14.84 477.775 14.84H466.415Z" fill="white" fill-opacity="0.08"/>
<circle cx="558" cy="40" r="8" fill="white" fill-opacity="0.08"/>
<path d="M660.4 20.76H645.92C645.28 15 640.533 12.12 631.68 12.12C627.52 12.12 624.32 12.7067 622.08 13.88C619.893 15.0533 618.8 16.68 618.8 18.76C618.8 20.7867 619.6 22.1467 621.2 22.84C622.853 23.5333 625.973 24.12 630.56 24.6L641.36 25.72C648.72 26.52 654.16 28.3067 657.68 31.08C661.2 33.8 662.96 37.6933 662.96 42.76C662.96 49.16 660.347 54.0667 655.12 57.48C649.893 60.84 642.213 62.52 632.08 62.52C612.08 62.52 602.08 55.32 602.08 40.92H616.96C616.907 44.44 618.293 47.08 621.12 48.84C624 50.6 628.24 51.48 633.84 51.48C638.107 51.48 641.387 50.8667 643.68 49.64C645.973 48.36 647.12 46.6 647.12 44.36C647.12 42.2267 646.267 40.76 644.56 39.96C642.853 39.1067 639.893 38.4667 635.68 38.04L625.44 37C617.973 36.2533 612.427 34.5733 608.8 31.96C605.227 29.2933 603.44 25.5333 603.44 20.68C603.44 15.08 605.947 10.4667 610.96 6.84C616.027 3.21333 622.853 1.39999 631.44 1.39999C640.667 1.39999 647.787 3.10666 652.8 6.52C657.867 9.88 660.4 14.6267 660.4 20.76ZM719.783 61L716.023 57C710.689 60.68 703.809 62.52 695.383 62.52C688.449 62.52 682.716 60.8133 678.183 57.4C673.703 53.9867 671.463 49.8267 671.463 44.92C671.463 41.1333 672.689 37.7733 675.143 34.84C677.649 31.9067 681.489 29.24 686.663 26.84C682.769 23.6933 680.823 19.9067 680.823 15.48C680.823 11.8 682.396 8.78666 685.543 6.44C688.689 4.04 692.903 2.84 698.183 2.84C703.836 2.84 708.236 4.01333 711.383 6.36C714.529 8.65333 716.103 11.8 716.103 15.8C716.103 18.7867 715.303 21.3733 713.703 23.56C712.103 25.7467 709.569 27.7467 706.103 29.56L716.423 39.64C717.489 38.2533 718.156 36.7067 718.423 35H732.583C731.036 40.92 728.689 45.5333 725.543 48.84L737.783 61H719.783ZM707.623 48.44L694.743 35.24C689.356 37.64 686.663 40.4133 686.663 43.56C686.663 45.8 687.649 47.6667 689.623 49.16C691.596 50.6 694.209 51.32 697.463 51.32C701.089 51.32 704.476 50.36 707.623 48.44ZM698.023 21.48C701.649 20.1467 703.463 18.3867 703.463 16.2C703.463 15.08 703.063 14.2 702.263 13.56C701.516 12.92 700.476 12.6 699.143 12.6C697.703 12.6 696.529 12.9467 695.623 13.64C694.769 14.28 694.343 15.08 694.343 16.04C694.343 17.5867 695.569 19.4 698.023 21.48ZM742.605 61V2.92H777.005C783.778 2.92 789.032 4.68 792.765 8.2C796.498 11.6667 798.365 16.4933 798.365 22.68C798.365 28.92 796.472 33.8267 792.685 37.4C788.952 40.9733 783.725 42.76 777.005 42.76H757.165V61H742.605ZM757.165 14.84V30.84H770.525C775.272 30.84 778.658 30.3067 780.685 29.24C782.765 28.12 783.805 26.0133 783.805 22.92C783.805 19.72 782.872 17.5867 781.005 16.52C779.192 15.4 776.018 14.84 771.485 14.84H757.165ZM804.87 44.04H819.91C820.71 48.5733 823.99 50.84 829.75 50.84C833.217 50.84 835.937 50.0133 837.91 48.36C839.883 46.6533 840.87 44.4133 840.87 41.64C840.87 38.76 839.883 36.4933 837.91 34.84C835.99 33.1867 833.35 32.36 829.99 32.36C825.777 32.36 822.497 33.9867 820.15 37.24H806.31L812.55 4.36H851.91V16.2H822.79L821.03 24.76C825.083 22.3067 829.35 21.08 833.83 21.08C840.337 21.08 845.51 22.8667 849.35 26.44C853.243 29.96 855.19 34.6267 855.19 40.44C855.19 47.32 852.95 52.7333 848.47 56.68C843.99 60.5733 837.803 62.52 829.91 62.52C822.497 62.52 816.603 60.8933 812.23 57.64C807.91 54.3333 805.457 49.8 804.87 44.04ZM870.422 54.76C865.835 49.5333 863.542 42.1733 863.542 32.68C863.542 23.1867 865.835 15.8533 870.422 10.68C875.009 5.50667 881.409 2.92 889.622 2.92C897.995 2.92 904.475 5.50667 909.062 10.68C913.649 15.8 915.942 23.1333 915.942 32.68C915.942 42.2267 913.649 49.5867 909.062 54.76C904.475 59.9333 897.995 62.52 889.622 62.52C881.409 62.52 875.009 59.9333 870.422 54.76ZM880.822 19.16C878.742 22.2533 877.702 26.76 877.702 32.68C877.702 38.6 878.742 43.1333 880.822 46.28C882.955 49.3733 885.942 50.92 889.782 50.92C893.622 50.92 896.582 49.3733 898.662 46.28C900.742 43.1333 901.782 38.6 901.782 32.68C901.782 26.76 900.742 22.2533 898.662 19.16C896.582 16.0133 893.622 14.44 889.782 14.44C885.942 14.44 882.955 16.0133 880.822 19.16ZM929.094 54.76C924.507 49.5333 922.214 42.1733 922.214 32.68C922.214 23.1867 924.507 15.8533 929.094 10.68C933.68 5.50667 940.08 2.92 948.294 2.92C956.667 2.92 963.147 5.50667 967.734 10.68C972.32 15.8 974.614 23.1333 974.614 32.68C974.614 42.2267 972.32 49.5867 967.734 54.76C963.147 59.9333 956.667 62.52 948.294 62.52C940.08 62.52 933.68 59.9333 929.094 54.76ZM939.494 19.16C937.414 22.2533 936.374 26.76 936.374 32.68C936.374 38.6 937.414 43.1333 939.494 46.28C941.627 49.3733 944.614 50.92 948.454 50.92C952.294 50.92 955.254 49.3733 957.334 46.28C959.414 43.1333 960.454 38.6 960.454 32.68C960.454 26.76 959.414 22.2533 957.334 19.16C955.254 16.0133 952.294 14.44 948.454 14.44C944.614 14.44 941.627 16.0133 939.494 19.16Z" fill="white" fill-opacity="0.08"/>
<circle cx="1018" cy="40" r="8" fill="white" fill-opacity="0.08"/>
<path d="M1064.48 2.92H1082.4L1111.44 43.88V2.92H1125.44V61H1107.76L1078.48 19.64V61H1064.48V2.92ZM1130.31 61L1157.83 2.92H1171.75L1198.23 61H1182.07L1176.79 48.68H1151.19L1145.99 61H1130.31ZM1156.15 36.92H1171.51L1163.75 19L1156.15 36.92ZM1258.99 20.76H1244.51C1243.87 15 1239.13 12.12 1230.27 12.12C1226.11 12.12 1222.91 12.7067 1220.67 13.88C1218.49 15.0533 1217.39 16.68 1217.39 18.76C1217.39 20.7867 1218.19 22.1467 1219.79 22.84C1221.45 23.5333 1224.57 24.12 1229.15 24.6L1239.95 25.72C1247.31 26.52 1252.75 28.3067 1256.27 31.08C1259.79 33.8 1261.55 37.6933 1261.55 42.76C1261.55 49.16 1258.94 54.0667 1253.71 57.48C1248.49 60.84 1240.81 62.52 1230.67 62.52C1210.67 62.52 1200.67 55.32 1200.67 40.92H1215.55C1215.5 44.44 1216.89 47.08 1219.71 48.84C1222.59 50.6 1226.83 51.48 1232.43 51.48C1236.7 51.48 1239.98 50.8667 1242.27 49.64C1244.57 48.36 1245.71 46.6 1245.71 44.36C1245.71 42.2267 1244.86 40.76 1243.15 39.96C1241.45 39.1067 1238.49 38.4667 1234.27 38.04L1224.03 37C1216.57 36.2533 1211.02 34.5733 1207.39 31.96C1203.82 29.2933 1202.03 25.5333 1202.03 20.68C1202.03 15.08 1204.54 10.4667 1209.55 6.84C1214.62 3.21333 1221.45 1.39999 1230.03 1.39999C1239.26 1.39999 1246.38 3.10666 1251.39 6.52C1256.46 9.88 1258.99 14.6267 1258.99 20.76ZM1272.14 61V2.92H1301.82C1306.46 2.92 1310.67 3.45333 1314.46 4.52C1318.3 5.58666 1321.71 7.24 1324.7 9.48C1327.74 11.72 1330.08 14.76 1331.74 18.6C1333.44 22.3867 1334.3 26.84 1334.3 31.96C1334.3 37.4 1333.39 42.0667 1331.58 45.96C1329.82 49.8 1327.26 52.8133 1323.9 55C1320.54 57.1333 1316.78 58.68 1312.62 59.64C1308.46 60.5467 1303.71 61 1298.38 61H1272.14ZM1286.7 14.84V49.08H1298.06C1304.72 49.08 1309.76 47.6133 1313.18 44.68C1316.64 41.6933 1318.38 37.3733 1318.38 31.72C1318.38 20.4667 1311.6 14.84 1298.06 14.84H1286.7ZM1336.09 61L1363.61 2.92H1377.53L1404.01 61H1387.85L1382.57 48.68H1356.97L1351.77 61H1336.09ZM1361.93 36.92H1377.29L1369.53 19L1361.93 36.92ZM1471.6 58.12L1462.8 66.28L1456.4 59.24C1451.5 61.4267 1445.82 62.52 1439.36 62.52C1428.75 62.52 1420.3 59.7467 1414 54.2C1407.71 48.6 1404.56 41.1867 1404.56 31.96C1404.56 22.7333 1407.71 15.3467 1414 9.8C1420.3 4.2 1428.75 1.39999 1439.36 1.39999C1449.98 1.39999 1458.43 4.2 1464.72 9.8C1471.02 15.3467 1474.16 22.7333 1474.16 31.96C1474.16 40.6533 1471.58 47.4533 1466.4 52.36L1471.6 58.12ZM1442.48 43.72L1451.36 35.48L1456.32 40.92C1457.55 38.68 1458.16 35.6933 1458.16 31.96C1458.16 26.2533 1456.48 21.72 1453.12 18.36C1449.76 15 1445.18 13.32 1439.36 13.32C1433.55 13.32 1428.96 14.9733 1425.6 18.28C1422.24 21.5867 1420.56 26.1467 1420.56 31.96C1420.56 37.8267 1422.27 42.4133 1425.68 45.72C1429.15 48.9733 1433.92 50.6 1440 50.6C1442.99 50.6 1445.42 50.0933 1447.28 49.08L1442.48 43.72Z" fill="white" fill-opacity="0.08"/>
<path d="M-65.52 161V102.92H-29.84C-22.16 102.92 -16.48 104.173 -12.8 106.68C-9.12 109.133 -7.28 113.08 -7.28 118.52C-7.28 121.987 -8.13333 125.027 -9.84 127.64C-11.4933 130.2 -13.84 132.067 -16.88 133.24C-13.9467 134.467 -12.0533 135.933 -11.2 137.64C-10.2933 139.347 -9.76 142.013 -9.6 145.64C-9.33333 151.72 -8.93333 155.613 -8.4 157.32C-7.92 158.813 -7.28 160.04 -6.47999 161H-22.8C-23.6 159.72 -24 158.227 -24 156.52V152.52C-24 147.453 -24.64 144.04 -25.92 142.28C-27.2 140.52 -29.9467 139.64 -34.16 139.64H-50.96V161H-65.52ZM-50.96 114.84V127.72H-34.48C-30.3733 127.72 -27.3867 127.24 -25.52 126.28C-23.6 125.267 -22.64 123.453 -22.64 120.84C-22.64 118.28 -23.5467 116.653 -25.36 115.96C-27.1733 115.213 -30.4267 114.84 -35.12 114.84H-50.96ZM-3.57375 102.92H50.8263V114.84H30.9063V161H16.3463V114.84H-3.57375V102.92ZM112.744 120.76H98.2638C97.6238 115 92.8771 112.12 84.0238 112.12C79.8638 112.12 76.6638 112.707 74.4238 113.88C72.2371 115.053 71.1438 116.68 71.1438 118.76C71.1438 120.787 71.9438 122.147 73.5438 122.84C75.1971 123.533 78.3171 124.12 82.9038 124.6L93.7038 125.72C101.064 126.52 106.504 128.307 110.024 131.08C113.544 133.8 115.304 137.693 115.304 142.76C115.304 149.16 112.69 154.067 107.464 157.48C102.237 160.84 94.5571 162.52 84.4238 162.52C64.4238 162.52 54.4238 155.32 54.4238 140.92H69.3038C69.2504 144.44 70.6371 147.08 73.4638 148.84C76.3438 150.6 80.5838 151.48 86.1838 151.48C90.4504 151.48 93.7304 150.867 96.0238 149.64C98.3171 148.36 99.4638 146.6 99.4638 144.36C99.4638 142.227 98.6104 140.76 96.9038 139.96C95.1971 139.107 92.2371 138.467 88.0238 138.04L77.7838 137C70.3171 136.253 64.7704 134.573 61.1438 131.96C57.5704 129.293 55.7838 125.533 55.7838 120.68C55.7838 115.08 58.2904 110.467 63.3038 106.84C68.3704 103.213 75.1971 101.4 83.7838 101.4C93.0104 101.4 100.13 103.107 105.144 106.52C110.21 109.88 112.744 114.627 112.744 120.76Z" fill="white" fill-opacity="0.08"/>
<circle cx="160" cy="140" r="8" fill="white" fill-opacity="0.08"/>
<path d="M262.4 120.76H247.92C247.28 115 242.533 112.12 233.68 112.12C229.52 112.12 226.32 112.707 224.08 113.88C221.893 115.053 220.8 116.68 220.8 118.76C220.8 120.787 221.6 122.147 223.2 122.84C224.853 123.533 227.973 124.12 232.56 124.6L243.36 125.72C250.72 126.52 256.16 128.307 259.68 131.08C263.2 133.8 264.96 137.693 264.96 142.76C264.96 149.16 262.347 154.067 257.12 157.48C251.893 160.84 244.213 162.52 234.08 162.52C214.08 162.52 204.08 155.32 204.08 140.92H218.96C218.907 144.44 220.293 147.08 223.12 148.84C226 150.6 230.24 151.48 235.84 151.48C240.107 151.48 243.387 150.867 245.68 149.64C247.973 148.36 249.12 146.6 249.12 144.36C249.12 142.227 248.267 140.76 246.56 139.96C244.853 139.107 241.893 138.467 237.68 138.04L227.44 137C219.973 136.253 214.427 134.573 210.8 131.96C207.227 129.293 205.44 125.533 205.44 120.68C205.44 115.08 207.947 110.467 212.96 106.84C218.027 103.213 224.853 101.4 233.44 101.4C242.667 101.4 249.787 103.107 254.8 106.52C259.867 109.88 262.4 114.627 262.4 120.76ZM290.343 102.92V161H275.783V102.92H290.343Z" fill="white" fill-opacity="0.08"/>
<circle cx="338" cy="140" r="8" fill="white" fill-opacity="0.08"/>
<path d="M440.4 120.76H425.92C425.28 115 420.533 112.12 411.68 112.12C407.52 112.12 404.32 112.707 402.08 113.88C399.893 115.053 398.8 116.68 398.8 118.76C398.8 120.787 399.6 122.147 401.2 122.84C402.853 123.533 405.973 124.12 410.56 124.6L421.36 125.72C428.72 126.52 434.16 128.307 437.68 131.08C441.2 133.8 442.96 137.693 442.96 142.76C442.96 149.16 440.347 154.067 435.12 157.48C429.893 160.84 422.213 162.52 412.08 162.52C392.08 162.52 382.08 155.32 382.08 140.92H396.96C396.907 144.44 398.293 147.08 401.12 148.84C404 150.6 408.24 151.48 413.84 151.48C418.107 151.48 421.387 150.867 423.68 149.64C425.973 148.36 427.12 146.6 427.12 144.36C427.12 142.227 426.267 140.76 424.56 139.96C422.853 139.107 419.893 138.467 415.68 138.04L405.44 137C397.973 136.253 392.427 134.573 388.8 131.96C385.227 129.293 383.44 125.533 383.44 120.68C383.44 115.08 385.947 110.467 390.96 106.84C396.027 103.213 402.853 101.4 411.44 101.4C420.667 101.4 427.787 103.107 432.8 106.52C437.867 109.88 440.4 114.627 440.4 120.76ZM453.543 161V102.92H491.063C504.129 102.92 510.663 107.747 510.663 117.4C510.663 123.213 508.023 127.453 502.743 130.12C509.463 132.253 512.823 137.027 512.823 144.44C512.823 149.507 511.169 153.533 507.863 156.52C504.556 159.507 499.943 161 494.023 161H453.543ZM468.103 136.36V149.08H487.462C491.196 149.08 493.809 148.707 495.303 147.96C496.849 147.213 497.623 145.587 497.623 143.08C497.623 140.627 496.823 138.893 495.223 137.88C493.623 136.867 491.036 136.36 487.462 136.36H468.103ZM468.103 114.84V126.2H485.303C488.983 126.2 491.596 125.8 493.143 125C494.689 124.147 495.463 122.547 495.463 120.2C495.463 118.067 494.689 116.653 493.143 115.96C491.596 115.213 488.983 114.84 485.303 114.84H468.103ZM522.683 102.92H574.283V114.84H537.243V124.52H570.203V136.44H537.243V149.08H574.283V161H522.683V102.92ZM585.105 161V102.92H620.785C628.465 102.92 634.145 104.173 637.825 106.68C641.505 109.133 643.345 113.08 643.345 118.52C643.345 121.987 642.492 125.027 640.785 127.64C639.132 130.2 636.785 132.067 633.745 133.24C636.678 134.467 638.572 135.933 639.425 137.64C640.332 139.347 640.865 142.013 641.025 145.64C641.292 151.72 641.692 155.613 642.225 157.32C642.705 158.813 643.345 160.04 644.145 161H627.825C627.025 159.72 626.625 158.227 626.625 156.52V152.52C626.625 147.453 625.985 144.04 624.705 142.28C623.425 140.52 620.678 139.64 616.465 139.64H599.665V161H585.105ZM599.665 114.84V127.72H616.145C620.252 127.72 623.238 127.24 625.105 126.28C627.025 125.267 627.985 123.453 627.985 120.84C627.985 118.28 627.078 116.653 625.265 115.96C623.452 115.213 620.198 114.84 615.505 114.84H599.665Z" fill="white" fill-opacity="0.08"/>
<circle cx="688" cy="140" r="8" fill="white" fill-opacity="0.08"/>
<path d="M798.8 123H782.96C780.347 116.547 774.747 113.32 766.16 113.32C760.347 113.32 755.76 114.973 752.4 118.28C749.04 121.587 747.36 126.147 747.36 131.96C747.36 137.773 749.04 142.333 752.4 145.64C755.76 148.947 760.347 150.6 766.16 150.6C770.16 150.6 773.653 149.747 776.64 148.04C779.68 146.333 781.867 144.04 783.2 141.16H770V129.24H798.64V161H787.6L786.8 154.44C781.36 159.827 774.213 162.52 765.36 162.52C755.333 162.52 747.147 159.72 740.8 154.12C734.507 148.52 731.36 141.133 731.36 131.96C731.36 122.733 734.507 115.347 740.8 109.8C747.093 104.2 755.547 101.4 766.16 101.4C775.227 101.4 782.72 103.427 788.64 107.48C794.56 111.48 797.947 116.653 798.8 123ZM803.197 161L830.717 102.92H844.637L871.117 161H854.957L849.677 148.68H824.077L818.877 161H803.197ZM829.037 136.92H844.397L836.637 119L829.037 136.92ZM874.444 102.92H931.484V115L893.244 149.08H931.804V161H872.844V148.44L910.524 114.84H874.444V102.92ZM941.668 161V102.92H976.068C982.841 102.92 988.094 104.68 991.828 108.2C995.561 111.667 997.428 116.493 997.428 122.68C997.428 128.92 995.534 133.827 991.748 137.4C988.014 140.973 982.788 142.76 976.068 142.76H956.228V161H941.668ZM956.228 114.84V130.84H969.588C974.334 130.84 977.721 130.307 979.748 129.24C981.828 128.12 982.868 126.013 982.868 122.92C982.868 119.72 981.934 117.587 980.068 116.52C978.254 115.4 975.081 114.84 970.548 114.84H956.228ZM1007.29 161V102.92H1042.97C1050.65 102.92 1056.33 104.173 1060.01 106.68C1063.69 109.133 1065.53 113.08 1065.53 118.52C1065.53 121.987 1064.68 125.027 1062.97 127.64C1061.32 130.2 1058.97 132.067 1055.93 133.24C1058.87 134.467 1060.76 135.933 1061.61 137.64C1062.52 139.347 1063.05 142.013 1063.21 145.64C1063.48 151.72 1063.88 155.613 1064.41 157.32C1064.89 158.813 1065.53 160.04 1066.33 161H1050.01C1049.21 159.72 1048.81 158.227 1048.81 156.52V152.52C1048.81 147.453 1048.17 144.04 1046.89 142.28C1045.61 140.52 1042.87 139.64 1038.65 139.64H1021.85V161H1007.29ZM1021.85 114.84V127.72H1038.33C1042.44 127.72 1045.43 127.24 1047.29 126.28C1049.21 125.267 1050.17 123.453 1050.17 120.84C1050.17 118.28 1049.27 116.653 1047.45 115.96C1045.64 115.213 1042.39 114.84 1037.69 114.84H1021.85ZM1082.52 109.8C1088.81 104.2 1097.27 101.4 1107.88 101.4C1118.49 101.4 1126.92 104.2 1133.16 109.8C1139.45 115.347 1142.6 122.733 1142.6 131.96C1142.6 141.187 1139.45 148.6 1133.16 154.2C1126.92 159.747 1118.49 162.52 1107.88 162.52C1097.27 162.52 1088.81 159.747 1082.52 154.2C1076.23 148.6 1073.08 141.187 1073.08 131.96C1073.08 122.733 1076.23 115.347 1082.52 109.8ZM1121.56 118.28C1118.25 114.973 1113.69 113.32 1107.88 113.32C1102.07 113.32 1097.48 114.973 1094.12 118.28C1090.76 121.587 1089.08 126.147 1089.08 131.96C1089.08 137.773 1090.76 142.333 1094.12 145.64C1097.48 148.947 1102.07 150.6 1107.88 150.6C1113.69 150.6 1118.25 148.947 1121.56 145.64C1124.92 142.333 1126.6 137.773 1126.6 131.96C1126.6 126.147 1124.92 121.587 1121.56 118.28ZM1152.45 102.92H1171.25L1189.97 144.52L1209.17 102.92H1227.81V161H1213.81V122.2L1195.81 161H1183.73L1166.45 121.56V161H1152.45V102.92Z" fill="white" fill-opacity="0.08"/>
<circle cx="1275" cy="140" r="8" fill="white" fill-opacity="0.08"/>
<path d="M1321.48 161V102.92H1359C1372.07 102.92 1378.6 107.747 1378.6 117.4C1378.6 123.213 1375.96 127.453 1370.68 130.12C1377.4 132.253 1380.76 137.027 1380.76 144.44C1380.76 149.507 1379.11 153.533 1375.8 156.52C1372.49 159.507 1367.88 161 1361.96 161H1321.48ZM1336.04 136.36V149.08H1355.4C1359.13 149.08 1361.75 148.707 1363.24 147.96C1364.79 147.213 1365.56 145.587 1365.56 143.08C1365.56 140.627 1364.76 138.893 1363.16 137.88C1361.56 136.867 1358.97 136.36 1355.4 136.36H1336.04ZM1336.04 114.84V126.2H1353.24C1356.92 126.2 1359.53 125.8 1361.08 125C1362.63 124.147 1363.4 122.547 1363.4 120.2C1363.4 118.067 1362.63 116.653 1361.08 115.96C1359.53 115.213 1356.92 114.84 1353.24 114.84H1336.04ZM1383.66 102.92H1438.06V114.84H1418.14V161H1403.58V114.84H1383.66V102.92ZM1508.94 124.12H1493.1C1491.18 116.92 1485.39 113.32 1475.74 113.32C1469.92 113.32 1465.34 114.973 1461.98 118.28C1458.62 121.587 1456.94 126.147 1456.94 131.96C1456.94 137.773 1458.62 142.333 1461.98 145.64C1465.34 148.947 1469.92 150.6 1475.74 150.6C1480.8 150.6 1484.86 149.533 1487.9 147.4C1490.99 145.267 1492.78 142.28 1493.26 138.44H1509.18C1508.43 145.693 1505.04 151.533 1499.02 155.96C1492.99 160.333 1485.23 162.52 1475.74 162.52C1465.12 162.52 1456.67 159.747 1450.38 154.2C1444.08 148.6 1440.94 141.187 1440.94 131.96C1440.94 122.733 1444.08 115.347 1450.38 109.8C1456.67 104.2 1465.12 101.4 1475.74 101.4C1485.12 101.4 1492.8 103.533 1498.78 107.8C1504.8 112.013 1508.19 117.453 1508.94 124.12Z" fill="white" fill-opacity="0.08"/>
</svg>
