<svg width="504" height="661" viewBox="0 0 504 661" fill="none" xmlns="http://www.w3.org/2000/svg">
<mask id="mask0" mask-type="alpha" maskUnits="userSpaceOnUse" x="0" y="0" width="504" height="661">
<rect width="504" height="661" fill="black"/>
</mask>
<g mask="url(#mask0)">
<rect width="504" height="706" fill="black"/>
<rect width="504" height="353" fill="#86E8AB"/>
<rect y="353" width="504" height="353" fill="#05343D"/>
<mask id="mask1" mask-type="alpha" maskUnits="userSpaceOnUse" x="-239" y="24" width="823" height="658">
<path d="M-182.035 29.4517L172.506 233.989L527.034 29.4529C552.357 14.8437 584 33.1195 584 62.3542V643.022C584 672.257 552.357 690.533 527.034 675.923L172.511 471.386L172.506 471.389V471.383L172.5 471.38L172.494 471.383V471.389L172.489 471.386L-182.034 675.923C-207.357 690.533 -239 672.257 -239 643.022V62.3532C-239 33.1187 -207.358 14.8429 -182.035 29.4517Z" fill="#C4C4C4"/>
</mask>
<g mask="url(#mask1)">
<path d="M172.5 471.373L-33.254 352.675L-239 471.382V708.782L172.5 471.373Z" fill="#0A5554"/>
<path d="M-239 -3.41602L172.494 233.984V471.385L-239 233.984V-3.41602Z" fill="#36B37E"/>
<path d="M172.5 471.378L378.254 352.68L584 471.387V708.787L172.5 471.378Z" fill="#11675D"/>
<path d="M378.25 352.674L584 471.383V233.983L378.25 352.674Z" fill="#279974"/>
<path d="M583.994 -3.41602L172.5 233.984V471.385L583.994 233.984V-3.41602Z" fill="#63D197"/>
<path d="M172.486 233.988L378.229 352.686L172.49 471.377L-33.25 352.687L172.486 233.988Z" fill="#279974"/>
</g>
<path d="M172.5 471.373L-33.254 352.675L-239 471.382V708.782L172.5 471.373Z" fill="#0A5554"/>
<path d="M-239 -3.41602L172.494 233.984V471.385L-239 233.984V-3.41602Z" fill="#36B37E"/>
<path d="M172.5 471.378L378.254 352.68L584 471.387V708.787L172.5 471.378Z" fill="#0A5554"/>
<path d="M378.25 352.674L584 471.383V233.983L378.25 352.674Z" fill="#1B806A"/>
<path d="M583.994 -3.41602L172.5 233.984V471.385L583.994 233.984V-3.41602Z" fill="#36B37E"/>
<path d="M172.486 233.988L378.229 352.686L172.49 471.377L-33.25 352.687L172.486 233.988Z" fill="#1B806A"/>
</g>
</svg>
