<svg width="14" height="14" viewBox="0 0 14 14" fill="none" xmlns="http://www.w3.org/2000/svg">
<g clip-path="url(#clip0)">
<path d="M13.9965 13.9998V13.9992H14V8.86472C14 6.35289 13.4592 4.41797 10.5227 4.41797C9.11107 4.41797 8.16374 5.19264 7.77699 5.92705H7.73615V4.65247H4.9519V13.9992H7.85107V9.37105C7.85107 8.15247 8.08207 6.97414 9.59115 6.97414C11.0781 6.97414 11.1002 8.3648 11.1002 9.44922V13.9998H13.9965Z" fill="white"/>
<path d="M0.230835 4.65332H3.1335V14.0001H0.230835V4.65332Z" fill="white"/>
<path d="M1.68117 0C0.753083 0 0 0.753083 0 1.68117C0 2.60925 0.753083 3.37808 1.68117 3.37808C2.60925 3.37808 3.36233 2.60925 3.36233 1.68117C3.36175 0.753083 2.60867 0 1.68117 0V0Z" fill="white"/>
</g>
<defs>
<clipPath id="clip0">
<rect width="14" height="14" fill="white"/>
</clipPath>
</defs>
</svg>
