<svg width="16" height="16" viewBox="0 0 16 16" fill="none" xmlns="http://www.w3.org/2000/svg">
<path d="M8.002 0H7.998C3.587 0 0 3.588 0 8C0 9.75 0.564 11.372 1.523 12.689L0.526 15.661L3.601 14.678C4.866 15.516 6.375 16 8.002 16C12.413 16 16 12.411 16 8C16 3.589 12.413 0 8.002 0Z" fill="white"/>
<path d="M12.6569 11.2967C12.4639 11.8417 11.6979 12.2937 11.0869 12.4257C10.6689 12.5147 10.1229 12.5857 8.28493 11.8237C5.93393 10.8497 4.41993 8.46069 4.30193 8.30569C4.18893 8.15069 3.35193 7.04069 3.35193 5.89269C3.35193 4.74469 3.93493 4.18569 4.16993 3.94569C4.36293 3.74869 4.68193 3.65869 4.98793 3.65869C5.08693 3.65869 5.17593 3.66369 5.25593 3.66769C5.49093 3.67769 5.60893 3.69169 5.76393 4.06269C5.95693 4.52769 6.42693 5.67569 6.48293 5.79369C6.53993 5.91169 6.59693 6.07169 6.51693 6.22669C6.44193 6.38669 6.37593 6.45769 6.25793 6.59369C6.13993 6.72969 6.02793 6.83369 5.90993 6.97969C5.80193 7.10669 5.67993 7.24269 5.81593 7.47769C5.95193 7.70769 6.42193 8.47469 7.11393 9.09069C8.00693 9.88569 8.73093 10.1397 8.98993 10.2477C9.18293 10.3277 9.41293 10.3087 9.55393 10.1587C9.73293 9.96569 9.95393 9.64569 10.1789 9.33069C10.3389 9.10469 10.5409 9.07669 10.7529 9.15669C10.9689 9.23169 12.1119 9.79669 12.3469 9.91369C12.5819 10.0317 12.7369 10.0877 12.7939 10.1867C12.8499 10.2857 12.8499 10.7507 12.6569 11.2967Z" fill="black"/>
</svg>
