<svg width="39" height="32" viewBox="0 0 39 32" fill="none" xmlns="http://www.w3.org/2000/svg">
<mask id="mask0" mask-type="alpha" maskUnits="userSpaceOnUse" x="0" y="0" width="39" height="32">
<path d="M2.69944 0.934513L19.5003 10.627L36.3005 0.934572C37.5005 0.242275 39 1.10832 39 2.49368V30.0102C39 31.3955 37.5005 32.2616 36.3005 31.5693L19.5005 21.8767L19.5003 21.8769V21.8766L19.5 21.8764L19.4997 21.8766V21.8769L19.4995 21.8767L2.69948 31.5693C1.49949 32.2616 0 31.3955 0 30.0102V2.49364C0 1.10828 1.49946 0.242237 2.69944 0.934513Z" fill="#C4C4C4"/>
</mask>
<g mask="url(#mask0)">
<path d="M19.5 21.8764L9.74981 16.2516L0 21.8768V33.1267L19.5 21.8764Z" fill="#0A5554"/>
<path d="M9.75 16.2515L0 21.8768V10.627L9.75 16.2515Z" fill="#1B806A"/>
<path d="M0 -0.622742L19.4997 10.6271V21.8769L0 10.6271V-0.622742Z" fill="#36B37E"/>
<path d="M19.5 21.8765L29.2502 16.2516L39 21.8769V33.1267L19.5 21.8765Z" fill="#0A5554"/>
<path d="M29.25 16.2516L39 21.8769V10.6271L29.25 16.2516Z" fill="#1B806A"/>
<path d="M39 -0.622742L19.5002 10.6271V21.8769L39 10.6271V-0.622742Z" fill="#36B37E"/>
<path d="M19.4998 10.6271L29.2495 16.252L19.5 21.8765L9.75049 16.252L19.4998 10.6271Z" fill="#1B806A"/>
</g>
</svg>
