<svg width="90" height="30" viewBox="0 0 90 30" fill="none" xmlns="http://www.w3.org/2000/svg">
<path d="M0.839844 29.6125V8.76795H7.00222V11.3735C7.38823 10.4636 8.07754 9.73297 9.07013 9.18153C10.0627 8.60251 11.1794 8.313 12.4202 8.313C13.7988 8.313 14.9706 8.60251 15.9356 9.18153C16.9006 9.73297 17.6175 10.5463 18.0862 11.6217C19.2443 9.41589 21.5603 8.313 25.0344 8.313C27.378 8.313 29.1978 9.08502 30.4937 10.6291C31.7896 12.1455 32.4375 14.2548 32.4375 16.9569V29.6125H26.2752V17.7013C26.2752 16.819 26.1235 16.0608 25.8202 15.4266C25.5169 14.7925 25.1171 14.3651 24.6208 14.1445C24.1245 13.8964 23.642 13.7723 23.1733 13.7723C22.1807 13.7723 21.3535 14.1721 20.6918 14.9717C20.0301 15.7437 19.6992 16.7225 19.6992 17.9081V29.6125H13.5368V17.7013C13.5368 16.819 13.3852 16.0608 13.0819 15.4266C12.7786 14.7925 12.3788 14.3651 11.8825 14.1445C11.3862 13.8964 10.9037 13.7723 10.435 13.7723C9.96623 13.7723 9.45614 13.9102 8.9047 14.1859C8.38083 14.434 7.92589 14.9028 7.53988 15.5921C7.18144 16.2538 7.00222 17.0258 7.00222 17.9081V29.6125H0.839844Z" fill="white"/>
<path d="M41.0969 6.98954C40.1595 6.98954 39.3323 6.64489 38.6154 5.95559C37.9261 5.26628 37.5815 4.4529 37.5815 3.51545C37.5815 2.55042 37.9261 1.72326 38.6154 1.03395C39.3323 0.344651 40.1595 0 41.0969 0C42.0619 0 42.8891 0.344651 43.5784 1.03395C44.2677 1.72326 44.6124 2.55042 44.6124 3.51545C44.6124 3.9566 44.4883 4.4529 44.2401 5.00435C44.0196 5.55579 43.606 6.02451 42.9994 6.41052C42.4204 6.79654 41.7862 6.98954 41.0969 6.98954ZM38.0364 29.6125V8.76795H44.1988V29.6125H38.0364Z" fill="white"/>
<path d="M49.9899 29.6125V8.76795H56.1523V11.6217C56.621 10.5739 57.393 9.76054 58.4684 9.18153C59.5437 8.60251 60.7844 8.313 62.1906 8.313C62.6042 8.313 63.1418 8.35436 63.8036 8.43708V14.2272C63.1694 14.0894 62.4801 14.0204 61.7357 14.0204C59.9986 14.0204 58.6338 14.503 57.6412 15.468C56.6486 16.433 56.1523 17.7565 56.1523 19.4384V29.6125H49.9899Z" fill="white"/>
<path d="M66.6072 19.1902C66.6072 17.7289 66.8691 16.3365 67.393 15.013C67.9169 13.6896 68.6475 12.5315 69.585 11.5389C70.5224 10.5463 71.6253 9.77433 72.8937 9.22289C74.162 8.67144 75.513 8.39572 76.9468 8.39572C77.6912 8.39572 78.5046 8.49222 79.3869 8.68523C80.2692 8.87823 81.055 9.23667 81.7443 9.76054C82.4612 10.2568 82.9299 10.8359 83.1505 11.4976V8.76795H89.3129V29.6125H83.1505V26.8829C82.8472 27.7652 82.1165 28.5096 80.9585 29.1162C79.828 29.6952 78.4908 29.9847 76.9468 29.9847C75.513 29.9847 74.162 29.709 72.8937 29.1576C71.6253 28.6061 70.5224 27.8341 69.585 26.8415C68.6475 25.8489 67.9169 24.6909 67.393 23.3674C66.8691 22.0439 66.6072 20.6515 66.6072 19.1902ZM72.7696 19.1902C72.7696 20.6515 73.2797 21.8923 74.2998 22.9125C75.32 23.9051 76.5745 24.4014 78.0634 24.4014C78.7527 24.4014 79.5248 24.2359 80.3795 23.9051C81.2342 23.5466 81.9649 22.94 82.5715 22.0853C83.2056 21.203 83.5227 20.238 83.5227 19.1902C83.5227 18.1425 83.2056 17.1912 82.5715 16.3365C81.9649 15.4542 81.2342 14.8476 80.3795 14.5167C79.5248 14.1583 78.7527 13.9791 78.0634 13.9791C76.5745 13.9791 75.32 14.4892 74.2998 15.5093C73.2797 16.5019 72.7696 17.7289 72.7696 19.1902Z" fill="white"/>
</svg>
